            <svg id="Capa_1" data-name="Capa 1" xmlns="http://www.w3.org/2000/svg" viewBox="0 0 278.13 56.48">
                <defs>
                    <style>
                        .cls-1 {
                            fill: #fff;
                        }

                        .cls-2 {
                            fill: #c8102e;
                        }
                    </style>
                </defs>
                <title>FSS</title>
                <g id="FSS">
                    <path class="cls-1"
                        d="M8.54,47.62c1,0,2.09,0,3.13,0,.39,0,1.05-.23,1,.48,0,.52-.48.71-1,.7-1.85,0-3.71,0-5.56,0-.6,0-1.18,0-1.43.68-.16.47-.76.89-.43,1.39s.87.19,1.32.2c.69,0,1.39,0,2.09,0,.35,0,.93-.17.9.45s-.38.79-1,.76-1.41.08-2.09,0a2.83,2.83,0,0,0-3.48,2C1.78,55,1.6,56.55.37,55.93c-.62-.32.42-1.34.74-2,.69-1.46,1.61-2.82,2.21-4.3a2.85,2.85,0,0,1,3.48-2A11.22,11.22,0,0,0,8.54,47.62Z"
                        transform="translate(-0.18 0)" />
                    <path class="cls-2"
                        d="M278.31.35a35.7,35.7,0,0,1-1.92,3.06,13.26,13.26,0,0,1-11.05,5.53q-34.63,0-69.27,0c-1.84,0-1.84,0-1-1.72.51-1,1-2.1,1.58-3.08a7.94,7.94,0,0,1,7.16-4.1q36.19,0,72.4,0c.69,0,1.39,0,2.08-.06Z"
                        transform="translate(-0.18 0)" />
                    <path class="cls-1"
                        d="M98.67.06A13.42,13.42,0,0,1,85.86,8.87c-11.78,0-23.56.05-35.34,0-4.37,0-7.4,1.76-9.29,5.68-.62,1.3-.31,1.5,1,1.49q16.11,0,32.2,0H91.3a12,12,0,0,1-11.38,8.91c-12.65.05-25.3.09-37.95,0-4.16,0-6.92,1.55-8.62,5.35-1.46,3.26-3.2,6.4-4.79,9.61C28.23,40.51,27.9,41,27,41c-6.27,0-12.53,0-18.8,0a1.74,1.74,0,0,1-.48-.14c-.1-.66.32-1.12.57-1.62C13.94,28,19.59,16.8,25.17,5.58A9.1,9.1,0,0,1,34.12,0c20.84.09,41.67,0,62.5,0Z"
                        transform="translate(-0.18 0)" />
                    <path class="cls-2"
                        d="M217.12,41.11H180.74c-2.06,0-2.07,0-1.12-1.8,2.74-5.09,7.11-7.35,12.81-7.35q24,0,48,0a5.25,5.25,0,0,0,4.74-2.33,2.77,2.77,0,0,0-1.83-4.5,11.16,11.16,0,0,0-2.24-.16H196.94a7.43,7.43,0,0,1-3.88-.68,5.65,5.65,0,0,1-2.12-7.54c.37-.74.89-.76,1.55-.76,2.72,0,5.45,0,8.18,0,20.3,0,40.61.14,60.92-.08,5.76-.07,9.32,5.11,6.26,10.24a81.52,81.52,0,0,0-4.05,8c-2.23,4.9-6,7-11.35,6.94C240.68,41.05,228.9,41.11,217.12,41.11Z"
                        transform="translate(-0.18 0)" />
                    <path class="cls-1"
                        d="M88,40.76c1.88-6,5.62-8.73,12-8.73q24.46,0,48.92,0c2.32,0,4.22-.64,5.49-2.66a2.73,2.73,0,0,0-2-4.39,13.5,13.5,0,0,0-1.91-.06q-23,0-46,0c-4.44,0-6.73-3.56-5-7.58A1.92,1.92,0,0,1,101.65,16c4.76.06,9.52,0,14.28,0h54.66c4.1,0,6.57,1.84,7.25,5.3a6.14,6.14,0,0,1-.74,4c-1.7,3.47-3.4,6.94-5.21,10.36A9.32,9.32,0,0,1,163,41q-36.57,0-73.13,0A3.4,3.4,0,0,1,88,40.76Z"
                        transform="translate(-0.18 0)" />
                    <path class="cls-1"
                        d="M187.24.06c-2.06,4.74-5.38,7.61-10.31,8.55a17,17,0,0,1-3.11.25q-34.18,0-68.38,0c-2.15,0-2.16,0-1.22-1.86a27.29,27.29,0,0,1,1.9-3.49A7.61,7.61,0,0,1,112.58.06h74.66Z"
                        transform="translate(-0.18 0)" />
                    <path class="cls-1"
                        d="M25.26,56c1.37-2.55,2.71-5,4-7.54a1.37,1.37,0,0,1,1.39-.81c1.85,0,3.71,0,5.57,0,2.14.1,2.6,1.13,1.43,3a3.2,3.2,0,0,1-1.62,1.51c-1.58.45-1.87,1.4-1.5,2.82.1.41.54,1.05-.41,1.18s-.82-.47-1.06-1c-.33-.77.32-2.27-1.3-2.18s-3.66-.81-4.56,1.61C27,55.26,26.75,56.46,25.26,56Zm7.63-7.15c-1.3-.13-3-.3-3.61,1.91-.24.83-.09,1,.7,1,1.45,0,2.9,0,4.34,0a2.49,2.49,0,0,0,1.84-.84,1.43,1.43,0,0,0,.5-1.4c-.18-.63-.76-.62-1.28-.63C34.69,48.8,34,48.81,32.89,48.81Z"
                        transform="translate(-0.18 0)" />
                    <path class="cls-2"
                        d="M209.3,47.48a6.18,6.18,0,0,1,2.47.35c.46.23,1.35.23,1,1a1.08,1.08,0,0,1-1.63.44,5.74,5.74,0,0,0-3.53-.54c-1,.08-2.46.08-2.42,1.36,0,1,1.46.77,2.32.88a12.29,12.29,0,0,1,2.4.29c1.63.53,2,1.27.88,2.64-2,2.56-4.81,2.67-7.72,2.34a4.85,4.85,0,0,1-1.47-.47c-.43-.2-1.15-.39-.69-1.08a1,1,0,0,1,1.47-.38,6.34,6.34,0,0,0,5.36.5,4.71,4.71,0,0,0,1.23-.61,1.07,1.07,0,0,0,.56-1.16c-.12-.48-.6-.54-1-.6-1.26-.17-2.54-.21-3.78-.45-1.81-.35-2.07-1.16-.87-2.58C205.23,47.84,207.07,47.47,209.3,47.48Z"
                        transform="translate(-0.18 0)" />
                    <path class="cls-2"
                        d="M251.93,54.63c1.19-2.18,2.16-4,3.16-5.81.25-.45.39-1,1-1.17a2.41,2.41,0,0,1,.83.08,2.44,2.44,0,0,1-.13.62c-1.27,2.39-2.51,4.8-3.85,7.14a1.37,1.37,0,0,1-2.51-.24c-.82-1.89-1.57-3.8-2.49-6-1.14,2.12-2.11,3.93-3.1,5.72A4,4,0,0,1,244,56a.78.78,0,0,1-1,0c-.28-.25,0-.52.16-.75,1.22-2.28,2.47-4.55,3.68-6.84a1.39,1.39,0,0,1,1.35-.85c.85,0,1.05.53,1.3,1.13C250.26,50.55,251,52.4,251.93,54.63Z"
                        transform="translate(-0.18 0)" />
                    <path class="cls-1"
                        d="M52.05,49.51l-6.88,5.13-1.47-5.4a14.35,14.35,0,0,0-1.94,3.19c-.55.94-1.06,1.91-1.55,2.89-.26.5-.58,1-1.16.72s0-.8.15-1.13c1.08-2.1,2.23-4.16,3.31-6.27a1.46,1.46,0,0,1,1.59-1c.92.1.81.85,1,1.42.36,1.2.67,2.42,1.08,3.89L52,48.6a10.08,10.08,0,0,1,1.3-.86,1.1,1.1,0,0,1,1.16,0c.49.38,0,.73-.2,1C53.11,50.92,52,53,50.81,55.17c-.27.51-.59,1.26-1.24.86s.08-1,.3-1.39c.81-1.63,1.68-3.23,2.53-4.84Z"
                        transform="translate(-0.18 0)" />
                    <path class="cls-1"
                        d="M139.3,56.09c1.51-2.79,2.85-5.27,4.18-7.75a1.1,1.1,0,0,1,1.08-.71,34.1,34.1,0,0,1,5.89.2c1.71.34,2.34,1.36,1.76,3A7.5,7.5,0,0,1,145.83,56,48.55,48.55,0,0,1,139.3,56.09Zm4.78-1c3.41,0,5.6-1.18,6.5-3.52q.9-2.36-1.54-2.69c-4-.54-4.43-.33-6.29,3.2l-.25.45C140.89,55.48,141.1,55,144.08,55.05Z"
                        transform="translate(-0.18 0)" />
                    <path class="cls-1"
                        d="M153.32,56.12l4.3-8c.3-.55.85-.5,1.37-.5,2,0,4.06,0,6.09,0,.38,0,1-.26,1,.5,0,.57-.5.68-1,.68-1.62,0-3.24,0-4.87,0a8.13,8.13,0,0,0-1.21,0,1.76,1.76,0,0,0-1.34,1.8c0,.8.9.38,1.4.44.69.07,1.39,0,2.08,0,.35,0,.92-.18.86.5a.74.74,0,0,1-.83.7,24.18,24.18,0,0,1-2.95,0c-1.37-.17-2,.53-2.48,1.63-.38.83-.27,1.15.68,1.14,1.68,0,3.36,0,5,0,.39,0,1-.23,1,.48,0,.44-.48.57-.93.57Z"
                        transform="translate(-0.18 0)" />
                    <path class="cls-2"
                        d="M213.27,56c1.4-2.59,2.75-5.06,4.07-7.55a1.3,1.3,0,0,1,1.32-.85c1.91,0,3.82-.06,5.72,0,2.09.1,2.6,1.23,1.47,3a5.18,5.18,0,0,1-4.24,2.3,10.33,10.33,0,0,1-2.08,0c-2.12-.26-3.87,0-4.55,2.45C214.76,56.13,214.16,56.27,213.27,56Zm6.88-4.27c1.26,0,2.58.22,3.71-.57a1.53,1.53,0,0,0,.84-1.58c-.16-.72-.85-.7-1.41-.72-1.22,0-2.44.05-3.65,0-1.75-.13-2.11,1.4-2.22,2.34s1.21.35,1.87.55A3.08,3.08,0,0,0,220.15,51.7Z"
                        transform="translate(-0.18 0)" />
                    <path class="cls-1"
                        d="M114.43,48.62a1.29,1.29,0,0,1-1.89.49,6,6,0,0,0-4.73-.23c-.6.21-1.3.5-1.2,1.27s.83.73,1.38.79a19.06,19.06,0,0,1,3.45.37c1.56.45,1.84,1.19,1,2.53-1.56,2.31-6.94,3.4-9.35,1.87-.32-.19-.88-.39-.56-.87s.72-.89,1.43-.41a6.77,6.77,0,0,0,4.71.68,5.12,5.12,0,0,0,1.77-.68c.5-.28,1-.73.78-1.39s-.77-.64-1.28-.7c-1.21-.15-2.43-.2-3.63-.4-1.51-.24-1.8-1-.9-2.29C107.1,47.22,112.08,46.66,114.43,48.62Z"
                        transform="translate(-0.18 0)" />
                    <path class="cls-1"
                        d="M171,49.14c-1.83,2.39-2.39,5.3-4.42,7.17l-.6-.4c1.36-2.53,2.67-5.08,4.08-7.58.65-1.14,1.79-1,2.32.19.84,1.94,1.61,3.91,2.58,6.29,1.12-2.06,2-3.75,2.95-5.43.24-.46.48-.92.76-1.36a.69.69,0,0,1,1-.28c.39.28,0,.62-.13.9-1.19,2.24-2.42,4.46-3.58,6.71a1.37,1.37,0,0,1-1.38.79c-.77,0-1-.47-1.18-1C172.64,53.19,171.85,51.28,171,49.14Z"
                        transform="translate(-0.18 0)" />
                    <path class="cls-1"
                        d="M20.5,47.41c1.33,0,2.63.16,3.31,1.47a3.26,3.26,0,0,1-.58,3.55A9,9,0,0,1,15,56.37c-2.77-.16-3.77-2-2.41-4.43C14.33,48.93,17.12,47.62,20.5,47.41Zm-4.05,7.8a6.61,6.61,0,0,0,5.7-3.16c1.06-1.67.44-3.15-1.54-3.4a6.52,6.52,0,0,0-6.25,2.62c-.66.85-1.17,1.81-.62,2.87S15.43,55.2,16.45,55.21Z"
                        transform="translate(-0.18 0)" />
                    <path class="cls-2"
                        d="M223.75,55.93l8.7-8a1.53,1.53,0,0,1,1.63-.23c.54.21.34.8.34,1.23q0,3,0,6.06c0,.47.19,1.1-.64,1.15-.65,0-.8-.34-.81-.86,0-.78-.46-.94-1.14-.93-1.33,0-2.67.06-4,0a2.42,2.42,0,0,0-1.89,1A1.74,1.74,0,0,1,223.75,55.93Zm4.88-3.08c4.56.37,4.71.78,4-3.76Z"
                        transform="translate(-0.18 0)" />
                    <path class="cls-1"
                        d="M79.18,55.93,87.63,48a1.48,1.48,0,0,1,1.62-.3c.54.21.42.77.42,1.21,0,2,0,4,0,6,0,.48.11,1.1-.7,1.11s-.71-.46-.7-.93c0-.85-.52-.89-1.14-.88-1.33,0-2.66,0-4,0a2.58,2.58,0,0,0-1.92,1C80.71,55.75,80.28,56.36,79.18,55.93Zm4.63-3.08c4.45.73,5.43-.25,4.07-3.84Z"
                        transform="translate(-0.18 0)" />
                    <path class="cls-1"
                        d="M60.45,55.23a4.82,4.82,0,0,0,4.63-3c.63-1.35,1.43-2.63,2.13-4,.25-.47.63-.8,1.1-.54s0,.72-.13,1c-.78,1.54-1.58,3.08-2.46,4.57-1.47,2.51-6.14,4-8.8,2.78A1.68,1.68,0,0,1,56,53.52c.86-1.76,1.82-3.47,2.74-5.21.23-.43.56-.87,1.08-.62.7.34.07.79-.09,1.12C59.19,49.9,58.58,51,58,52,56.71,54.47,57.25,55.32,60.45,55.23Z"
                        transform="translate(-0.18 0)" />
                    <path class="cls-1"
                        d="M131.3,55.23a4.8,4.8,0,0,0,4.66-3.1c.52-1.15,1.15-2.26,1.77-3.36.29-.52.52-1.45,1.3-1s-.07,1-.28,1.44c-.59,1.25-1.26,2.46-1.94,3.66a7.88,7.88,0,0,1-8.57,3.37c-1.74-.52-2.14-1.35-1.33-3s1.66-3.16,2.52-4.73c.27-.49.61-1.22,1.27-.75s-.14.9-.33,1.31c-.47,1-1,1.94-1.52,2.91C127.52,54.5,128,55.31,131.3,55.23Z"
                        transform="translate(-0.18 0)" />
                    <path class="cls-1"
                        d="M117.19,55.94c1.06-2,2-3.9,3.08-5.74.68-1.19.34-1.5-.9-1.4-.74.06-1.49,0-2.26,0,0-1.08.64-1.2,1.41-1.19,2.37,0,4.75,0,7.13,0,.4,0,1.06-.22,1,.52,0,.58-.54.76-1,.64-3.11-.76-4.29,1.2-5.27,3.57-.42,1-1.06,1.92-1.54,2.91C118.52,55.92,118.14,56.33,117.19,55.94Z"
                        transform="translate(-0.18 0)" />
                    <path class="cls-1"
                        d="M186.49,48.83h-3.78c-.1-1.12.56-1.21,1.31-1.21,2.44,0,4.88,0,7.32,0,.34,0,.93-.22.91.45a.75.75,0,0,1-1,.71c-3.48-.94-4.46,1.58-5.59,3.93-.47,1-1,1.94-1.54,2.91a.74.74,0,0,1-1,.43c-.59-.29-.1-.66.06-1C184.22,53.11,185.27,51.13,186.49,48.83Z"
                        transform="translate(-0.18 0)" />
                    <path class="cls-1"
                        d="M72.56,56.12c-4.09,0-4.09,0-2.17-3.58.75-1.42,1.5-2.85,2.26-4.27.23-.43.61-.83,1.1-.58.67.35.06.81-.11,1.13-.74,1.5-1.55,3-2.33,4.43-.93,1.77-.92,1.79,1.17,1.8,1,0,2.08,0,3.12,0,.38,0,1.07-.27,1.08.41s-.66.64-1.17.64C74.53,56.13,73.54,56.12,72.56,56.12Z"
                        transform="translate(-0.18 0)" />
                    <path class="cls-2"
                        d="M237.38,55.93c1.41-2.61,2.76-5.13,4.11-7.65.27-.51.71-.92,1.23-.64.78.42,0,.91-.18,1.26-1,2.09-2.19,4.15-3.29,6.22C238.88,55.83,238.49,56.43,237.38,55.93Z"
                        transform="translate(-0.18 0)" />
                </g>
            </svg>